solid Bakes
 facet normal -1.000000e+00 -0.000000e+00 -0.000000e+00
   outer loop
     vertex -3.600000e+00  4.500000e+00  9.000000e+00
     vertex -3.600000e+00  4.500000e+00  0.000000e+00
     vertex -3.600000e+00 -4.500000e+00  9.000000e+00
   endloop
 endfacet
 facet normal -1.000000e+00  0.000000e+00  0.000000e+00
   outer loop
     vertex -3.600000e+00  4.500000e+00  0.000000e+00
     vertex -3.600000e+00 -4.500000e+00  0.000000e+00
     vertex -3.600000e+00 -4.500000e+00  9.000000e+00
   endloop
 endfacet
 facet normal  1.000000e+00 -0.000000e+00  0.000000e+00
   outer loop
     vertex  5.400000e+00 -4.500000e+00  9.000000e+00
     vertex  5.400000e+00  4.500000e+00  0.000000e+00
     vertex  5.400000e+00  4.500000e+00  9.000000e+00
   endloop
 endfacet
 facet normal  1.000000e+00 -0.000000e+00  0.000000e+00
   outer loop
     vertex  5.400000e+00 -4.500000e+00  9.000000e+00
     vertex  5.400000e+00 -4.500000e+00  0.000000e+00
     vertex  5.400000e+00  4.500000e+00  0.000000e+00
   endloop
 endfacet
 facet normal  0.000000e+00 -1.000000e+00  0.000000e+00
   outer loop
     vertex -3.600000e+00 -4.500000e+00  0.000000e+00
     vertex  5.400000e+00 -4.500000e+00  0.000000e+00
     vertex -3.600000e+00 -4.500000e+00  9.000000e+00
   endloop
 endfacet
 facet normal  0.000000e+00 -1.000000e+00  0.000000e+00
   outer loop
     vertex -3.600000e+00 -4.500000e+00  9.000000e+00
     vertex  5.400000e+00 -4.500000e+00  0.000000e+00
     vertex  5.400000e+00 -4.500000e+00  9.000000e+00
   endloop
 endfacet
 facet normal  0.000000e+00  1.000000e+00  0.000000e+00
   outer loop
     vertex -3.600000e+00  4.500000e+00  9.000000e+00
     vertex  5.400000e+00  4.500000e+00  0.000000e+00
     vertex -3.600000e+00  4.500000e+00  0.000000e+00
   endloop
 endfacet
 facet normal  0.000000e+00  1.000000e+00  0.000000e+00
   outer loop
     vertex  5.400000e+00  4.500000e+00  9.000000e+00
     vertex  5.400000e+00  4.500000e+00  0.000000e+00
     vertex -3.600000e+00  4.500000e+00  9.000000e+00
   endloop
 endfacet
 facet normal  0.000000e+00  0.000000e+00 -1.000000e+00
   outer loop
     vertex -3.600000e+00 -4.500000e+00  0.000000e+00
     vertex -3.600000e+00  4.500000e+00  0.000000e+00
     vertex  5.400000e+00  4.500000e+00  0.000000e+00
   endloop
 endfacet
 facet normal  0.000000e+00  0.000000e+00 -1.000000e+00
   outer loop
     vertex  5.400000e+00 -4.500000e+00  0.000000e+00
     vertex -3.600000e+00 -4.500000e+00  0.000000e+00
     vertex  5.400000e+00  4.500000e+00  0.000000e+00
   endloop
 endfacet
 facet normal  0.000000e+00  0.000000e+00  1.000000e+00
   outer loop
     vertex  5.400000e+00  4.500000e+00  9.000000e+00
     vertex -3.600000e+00  4.500000e+00  9.000000e+00
     vertex -3.600000e+00 -4.500000e+00  9.000000e+00
   endloop
 endfacet
 facet normal -0.000000e+00  0.000000e+00  1.000000e+00
   outer loop
     vertex  5.400000e+00  4.500000e+00  9.000000e+00
     vertex -3.600000e+00 -4.500000e+00  9.000000e+00
     vertex  5.400000e+00 -4.500000e+00  9.000000e+00
   endloop
 endfacet
 facet normal -1.000000e+00 -0.000000e+00 -0.000000e+00
   outer loop
     vertex  3.000000e+00  1.100000e+01  1.000000e+01
     vertex  3.000000e+00  1.100000e+01  0.000000e+00
     vertex  3.000000e+00 -1.000000e+01  1.000000e+01
   endloop
 endfacet
 facet normal -1.000000e+00  0.000000e+00  0.000000e+00
   outer loop
     vertex  3.000000e+00  1.100000e+01  0.000000e+00
     vertex  3.000000e+00 -1.000000e+01  0.000000e+00
     vertex  3.000000e+00 -1.000000e+01  1.000000e+01
   endloop
 endfacet
 facet normal  1.000000e+00 -0.000000e+00  0.000000e+00
   outer loop
     vertex  2.000000e+01 -1.000000e+01  1.000000e+01
     vertex  2.000000e+01  1.100000e+01  0.000000e+00
     vertex  2.000000e+01  1.100000e+01  1.000000e+01
   endloop
 endfacet
 facet normal  1.000000e+00 -0.000000e+00  0.000000e+00
   outer loop
     vertex  2.000000e+01 -1.000000e+01  1.000000e+01
     vertex  2.000000e+01 -1.000000e+01  0.000000e+00
     vertex  2.000000e+01  1.100000e+01  0.000000e+00
   endloop
 endfacet
 facet normal  0.000000e+00 -1.000000e+00  0.000000e+00
   outer loop
     vertex  3.000000e+00 -1.000000e+01  0.000000e+00
     vertex  2.000000e+01 -1.000000e+01  0.000000e+00
     vertex  2.000000e+01 -1.000000e+01  1.000000e+01
   endloop
 endfacet
 facet normal  0.000000e+00 -1.000000e+00  0.000000e+00
   outer loop
     vertex  3.000000e+00 -1.000000e+01  1.000000e+01
     vertex  3.000000e+00 -1.000000e+01  0.000000e+00
     vertex  2.000000e+01 -1.000000e+01  1.000000e+01
   endloop
 endfacet
 facet normal  0.000000e+00  1.000000e+00  0.000000e+00
   outer loop
     vertex  2.000000e+01  1.100000e+01  1.000000e+01
     vertex  2.000000e+01  1.100000e+01  0.000000e+00
     vertex  3.000000e+00  1.100000e+01  0.000000e+00
   endloop
 endfacet
 facet normal  0.000000e+00  1.000000e+00 -0.000000e+00
   outer loop
     vertex  2.000000e+01  1.100000e+01  1.000000e+01
     vertex  3.000000e+00  1.100000e+01  0.000000e+00
     vertex  3.000000e+00  1.100000e+01  1.000000e+01
   endloop
 endfacet
 facet normal  0.000000e+00  0.000000e+00 -1.000000e+00
   outer loop
     vertex  2.000000e+01 -1.000000e+01  0.000000e+00
     vertex  3.000000e+00 -1.000000e+01  0.000000e+00
     vertex  3.000000e+00  1.100000e+01  0.000000e+00
   endloop
 endfacet
 facet normal  0.000000e+00  0.000000e+00 -1.000000e+00
   outer loop
     vertex  2.000000e+01 -1.000000e+01  0.000000e+00
     vertex  3.000000e+00  1.100000e+01  0.000000e+00
     vertex  2.000000e+01  1.100000e+01  0.000000e+00
   endloop
 endfacet
 facet normal -0.000000e+00  0.000000e+00  1.000000e+00
   outer loop
     vertex  3.000000e+00  1.100000e+01  1.000000e+01
     vertex  3.000000e+00 -1.000000e+01  1.000000e+01
     vertex  2.000000e+01 -1.000000e+01  1.000000e+01
   endloop
 endfacet
 facet normal  0.000000e+00  0.000000e+00  1.000000e+00
   outer loop
     vertex  2.000000e+01  1.100000e+01  1.000000e+01
     vertex  3.000000e+00  1.100000e+01  1.000000e+01
     vertex  2.000000e+01 -1.000000e+01  1.000000e+01
   endloop
 endfacet
endsolid Bakes